<mxfile host="Electron" agent="Mozilla/5.0 (Windows NT 10.0; Win64; x64) AppleWebKit/537.36 (KHTML, like Gecko) draw.io/28.2.5 Chrome/138.0.7204.251 Electron/37.6.1 Safari/537.36" version="28.2.5">
  <diagram id="HhGJGDPgac20MyiszJ41" name="Page-1">
    <mxGraphModel dx="2916" dy="1249" grid="1" gridSize="10" guides="1" tooltips="1" connect="1" arrows="1" fold="1" page="1" pageScale="1" pageWidth="850" pageHeight="1100" math="0" shadow="0">
      <root>
        <mxCell id="0" />
        <mxCell id="1" parent="0" />
        <mxCell id="MNFZxwI8h7TTmshtL6sV-73" value="" style="group" vertex="1" connectable="0" parent="1">
          <mxGeometry x="-180" y="450" width="390" height="230" as="geometry" />
        </mxCell>
        <mxCell id="6" value="Banco de dados" style="verticalAlign=top;align=left;spacingTop=8;spacingLeft=2;spacingRight=12;shape=cube;size=10;direction=south;fontStyle=4;html=1;whiteSpace=wrap;" parent="MNFZxwI8h7TTmshtL6sV-73" vertex="1">
          <mxGeometry width="390" height="230" as="geometry" />
        </mxCell>
        <mxCell id="12" value="SGBD (mySQL)" style="shape=module;align=left;spacingLeft=20;align=center;verticalAlign=top;whiteSpace=wrap;html=1;" parent="MNFZxwI8h7TTmshtL6sV-73" vertex="1">
          <mxGeometry x="40" y="50" width="100" height="50" as="geometry" />
        </mxCell>
        <mxCell id="13" value="Persistencia" style="shape=module;align=left;spacingLeft=20;align=center;verticalAlign=top;whiteSpace=wrap;html=1;" parent="MNFZxwI8h7TTmshtL6sV-73" vertex="1">
          <mxGeometry x="180" y="150" width="100" height="50" as="geometry" />
        </mxCell>
        <mxCell id="19" value="" style="ellipse;whiteSpace=wrap;html=1;align=center;aspect=fixed;fillColor=none;strokeColor=none;resizable=0;perimeter=centerPerimeter;rotatable=0;allowArrows=0;points=[];outlineConnect=1;" parent="MNFZxwI8h7TTmshtL6sV-73" vertex="1">
          <mxGeometry x="140" y="70" width="10" height="10" as="geometry" />
        </mxCell>
        <mxCell id="18" value="" style="rounded=0;orthogonalLoop=1;jettySize=auto;html=1;endArrow=oval;endFill=0;sketch=0;sourcePerimeterSpacing=0;targetPerimeterSpacing=0;endSize=10;exitX=1.018;exitY=0.488;exitDx=0;exitDy=0;exitPerimeter=0;" parent="MNFZxwI8h7TTmshtL6sV-73" edge="1" source="12">
          <mxGeometry relative="1" as="geometry">
            <mxPoint x="120.00000000000023" y="75" as="sourcePoint" />
            <mxPoint x="195" y="92.5" as="targetPoint" />
            <Array as="points">
              <mxPoint x="195" y="92.5" />
            </Array>
          </mxGeometry>
        </mxCell>
        <mxCell id="24" value="" style="html=1;verticalAlign=bottom;labelBackgroundColor=none;endArrow=open;endFill=0;dashed=1;exitX=0;exitY=0;exitDx=10;exitDy=0;exitPerimeter=0;" parent="MNFZxwI8h7TTmshtL6sV-73" source="13" edge="1">
          <mxGeometry width="160" relative="1" as="geometry">
            <mxPoint x="-195" y="-20" as="sourcePoint" />
            <mxPoint x="200" y="100" as="targetPoint" />
          </mxGeometry>
        </mxCell>
        <mxCell id="26" value="" style="rounded=0;orthogonalLoop=1;jettySize=auto;html=1;endArrow=oval;endFill=0;sketch=0;sourcePerimeterSpacing=0;targetPerimeterSpacing=0;endSize=10;" parent="MNFZxwI8h7TTmshtL6sV-73" edge="1">
          <mxGeometry relative="1" as="geometry">
            <mxPoint x="280" y="173" as="sourcePoint" />
            <mxPoint x="317" y="177.5" as="targetPoint" />
            <Array as="points">
              <mxPoint x="317" y="177.5" />
            </Array>
          </mxGeometry>
        </mxCell>
        <mxCell id="MNFZxwI8h7TTmshtL6sV-84" value="" style="group" vertex="1" connectable="0" parent="1">
          <mxGeometry x="300" y="390" width="460" height="270" as="geometry" />
        </mxCell>
        <mxCell id="MNFZxwI8h7TTmshtL6sV-62" value="" style="group" vertex="1" connectable="0" parent="MNFZxwI8h7TTmshtL6sV-84">
          <mxGeometry x="10" width="460" height="270" as="geometry" />
        </mxCell>
        <mxCell id="4" value="Servidor de Aplicação" style="verticalAlign=top;align=left;spacingTop=8;spacingLeft=2;spacingRight=12;shape=cube;size=10;direction=south;fontStyle=4;html=1;whiteSpace=wrap;" parent="MNFZxwI8h7TTmshtL6sV-62" vertex="1">
          <mxGeometry y="-40" width="460" height="310" as="geometry" />
        </mxCell>
        <mxCell id="MNFZxwI8h7TTmshtL6sV-65" value="" style="group" vertex="1" connectable="0" parent="MNFZxwI8h7TTmshtL6sV-62">
          <mxGeometry x="61" y="30" width="130" height="230" as="geometry" />
        </mxCell>
        <mxCell id="9" value="Serviço de Benefícios" style="shape=module;align=left;spacingLeft=20;align=center;verticalAlign=top;whiteSpace=wrap;html=1;" parent="MNFZxwI8h7TTmshtL6sV-65" vertex="1">
          <mxGeometry x="30" y="120" width="100" height="50" as="geometry" />
        </mxCell>
        <mxCell id="10" value="Serviço de Transações (Moedas)" style="shape=module;align=left;spacingLeft=20;align=center;verticalAlign=top;whiteSpace=wrap;html=1;" parent="MNFZxwI8h7TTmshtL6sV-65" vertex="1">
          <mxGeometry y="180" width="130" height="50" as="geometry" />
        </mxCell>
        <mxCell id="MNFZxwI8h7TTmshtL6sV-42" value="Instituições" style="shape=module;align=left;spacingLeft=20;align=center;verticalAlign=top;whiteSpace=wrap;html=1;" vertex="1" parent="MNFZxwI8h7TTmshtL6sV-65">
          <mxGeometry x="30" y="60" width="100" height="50" as="geometry" />
        </mxCell>
        <mxCell id="MNFZxwI8h7TTmshtL6sV-87" value="" style="endArrow=open;endSize=12;dashed=1;html=1;rounded=0;exitX=0.07;exitY=0.6;exitDx=0;exitDy=0;exitPerimeter=0;" edge="1" parent="MNFZxwI8h7TTmshtL6sV-62" source="MNFZxwI8h7TTmshtL6sV-42">
          <mxGeometry width="160" relative="1" as="geometry">
            <mxPoint x="99" y="128" as="sourcePoint" />
            <mxPoint x="-169" y="240" as="targetPoint" />
          </mxGeometry>
        </mxCell>
        <mxCell id="8" value="Usuario" style="shape=module;align=left;spacingLeft=20;align=center;verticalAlign=top;whiteSpace=wrap;html=1;" parent="MNFZxwI8h7TTmshtL6sV-62" vertex="1">
          <mxGeometry x="91" y="30" width="100" height="50" as="geometry" />
        </mxCell>
        <mxCell id="MNFZxwI8h7TTmshtL6sV-48" value="" style="ellipse;whiteSpace=wrap;html=1;align=center;aspect=fixed;fillColor=none;strokeColor=none;resizable=0;perimeter=centerPerimeter;rotatable=0;allowArrows=0;points=[];outlineConnect=1;" vertex="1" parent="MNFZxwI8h7TTmshtL6sV-84">
          <mxGeometry x="241" y="50" width="10" height="10" as="geometry" />
        </mxCell>
        <mxCell id="MNFZxwI8h7TTmshtL6sV-51" value="" style="rounded=0;orthogonalLoop=1;jettySize=auto;html=1;endArrow=oval;endFill=0;sketch=0;sourcePerimeterSpacing=0;targetPerimeterSpacing=0;endSize=10;strokeWidth=1;startSize=15;" edge="1" parent="MNFZxwI8h7TTmshtL6sV-84">
          <mxGeometry relative="1" as="geometry">
            <mxPoint x="191" y="54.89999999999998" as="sourcePoint" />
            <mxPoint x="211" y="54.89999999999998" as="targetPoint" />
          </mxGeometry>
        </mxCell>
        <mxCell id="MNFZxwI8h7TTmshtL6sV-53" value="" style="rounded=0;orthogonalLoop=1;jettySize=auto;html=1;endArrow=oval;endFill=0;sketch=0;sourcePerimeterSpacing=0;targetPerimeterSpacing=0;endSize=10;strokeWidth=1;startSize=15;" edge="1" parent="MNFZxwI8h7TTmshtL6sV-84">
          <mxGeometry relative="1" as="geometry">
            <mxPoint x="191" y="110" as="sourcePoint" />
            <mxPoint x="211" y="110" as="targetPoint" />
          </mxGeometry>
        </mxCell>
        <mxCell id="MNFZxwI8h7TTmshtL6sV-54" value="" style="rounded=0;orthogonalLoop=1;jettySize=auto;html=1;endArrow=oval;endFill=0;sketch=0;sourcePerimeterSpacing=0;targetPerimeterSpacing=0;endSize=10;strokeWidth=1;startSize=15;" edge="1" parent="MNFZxwI8h7TTmshtL6sV-84">
          <mxGeometry relative="1" as="geometry">
            <mxPoint x="191" y="170" as="sourcePoint" />
            <mxPoint x="211" y="170" as="targetPoint" />
          </mxGeometry>
        </mxCell>
        <mxCell id="MNFZxwI8h7TTmshtL6sV-55" value="" style="rounded=0;orthogonalLoop=1;jettySize=auto;html=1;endArrow=oval;endFill=0;sketch=0;sourcePerimeterSpacing=2;targetPerimeterSpacing=0;endSize=10;strokeWidth=1;startSize=15;" edge="1" parent="MNFZxwI8h7TTmshtL6sV-84">
          <mxGeometry relative="1" as="geometry">
            <mxPoint x="191" y="234.89999999999998" as="sourcePoint" />
            <mxPoint x="211" y="230" as="targetPoint" />
          </mxGeometry>
        </mxCell>
        <mxCell id="2" value="Servidor Email" style="verticalAlign=top;align=left;spacingTop=8;spacingLeft=2;spacingRight=12;shape=cube;size=10;direction=south;fontStyle=4;html=1;whiteSpace=wrap;" parent="1" vertex="1">
          <mxGeometry x="340" y="150" width="220" height="150" as="geometry" />
        </mxCell>
        <mxCell id="7" value="Sistema Email" style="shape=module;align=left;spacingLeft=20;align=center;verticalAlign=top;whiteSpace=wrap;html=1;" parent="1" vertex="1">
          <mxGeometry x="390" y="220" width="100" height="50" as="geometry" />
        </mxCell>
        <mxCell id="29" value="" style="endArrow=none;html=1;entryX=0.217;entryY=1;entryDx=0;entryDy=0;entryPerimeter=0;exitX=0;exitY=0;exitDx=0;exitDy=0;exitPerimeter=0;" parent="1" source="4" target="5" edge="1">
          <mxGeometry width="50" height="50" relative="1" as="geometry">
            <mxPoint x="750" y="480" as="sourcePoint" />
            <mxPoint x="800" y="430" as="targetPoint" />
          </mxGeometry>
        </mxCell>
        <mxCell id="30" value="&amp;lt;&amp;lt;HTTP/ HTTPS&amp;gt;&amp;gt;" style="edgeLabel;html=1;align=center;verticalAlign=middle;resizable=0;points=[];" parent="29" vertex="1" connectable="0">
          <mxGeometry x="0.0645" relative="1" as="geometry">
            <mxPoint as="offset" />
          </mxGeometry>
        </mxCell>
        <mxCell id="31" value="" style="endArrow=none;html=1;exitX=0.371;exitY=0.998;exitDx=0;exitDy=0;exitPerimeter=0;entryX=0.2;entryY=-0.008;entryDx=0;entryDy=0;entryPerimeter=0;" parent="1" source="4" target="6" edge="1">
          <mxGeometry width="50" height="50" relative="1" as="geometry">
            <mxPoint x="780" y="400" as="sourcePoint" />
            <mxPoint x="210" y="574" as="targetPoint" />
          </mxGeometry>
        </mxCell>
        <mxCell id="32" value="&amp;lt;&amp;lt;JDBC/ODBC&amp;gt;&amp;gt;" style="edgeLabel;html=1;align=center;verticalAlign=middle;resizable=0;points=[];" parent="31" vertex="1" connectable="0">
          <mxGeometry x="0.0645" relative="1" as="geometry">
            <mxPoint y="-10" as="offset" />
          </mxGeometry>
        </mxCell>
        <mxCell id="35" value="" style="endArrow=none;html=1;entryX=0.993;entryY=0.39;entryDx=0;entryDy=0;entryPerimeter=0;exitX=-0.01;exitY=0.641;exitDx=0;exitDy=0;exitPerimeter=0;" parent="1" source="4" target="2" edge="1">
          <mxGeometry width="50" height="50" relative="1" as="geometry">
            <mxPoint x="750" y="480" as="sourcePoint" />
            <mxPoint x="800" y="430" as="targetPoint" />
          </mxGeometry>
        </mxCell>
        <mxCell id="36" value="SMTP/TLS" style="edgeLabel;html=1;align=center;verticalAlign=middle;resizable=0;points=[];" parent="35" vertex="1" connectable="0">
          <mxGeometry x="-0.1521" y="-1" relative="1" as="geometry">
            <mxPoint as="offset" />
          </mxGeometry>
        </mxCell>
        <mxCell id="MNFZxwI8h7TTmshtL6sV-44" value="" style="ellipse;whiteSpace=wrap;html=1;align=center;aspect=fixed;fillColor=none;strokeColor=none;resizable=0;perimeter=centerPerimeter;rotatable=0;allowArrows=0;points=[];outlineConnect=1;" vertex="1" parent="1">
          <mxGeometry x="840" y="430" width="10" height="10" as="geometry" />
        </mxCell>
        <mxCell id="MNFZxwI8h7TTmshtL6sV-85" value="" style="endArrow=open;endSize=12;dashed=1;html=1;rounded=0;exitX=0.1;exitY=0.58;exitDx=0;exitDy=0;exitPerimeter=0;" edge="1" parent="1" source="10">
          <mxGeometry width="160" relative="1" as="geometry">
            <mxPoint x="989" y="300" as="sourcePoint" />
            <mxPoint x="140" y="630" as="targetPoint" />
          </mxGeometry>
        </mxCell>
        <mxCell id="MNFZxwI8h7TTmshtL6sV-86" value="" style="endArrow=open;endSize=12;dashed=1;html=1;rounded=0;exitX=0.18;exitY=0.52;exitDx=0;exitDy=0;exitPerimeter=0;" edge="1" parent="1" source="9">
          <mxGeometry width="160" relative="1" as="geometry">
            <mxPoint x="393" y="639" as="sourcePoint" />
            <mxPoint x="140" y="630" as="targetPoint" />
          </mxGeometry>
        </mxCell>
        <mxCell id="MNFZxwI8h7TTmshtL6sV-89" value="" style="group" vertex="1" connectable="0" parent="1">
          <mxGeometry x="885" y="400" width="390" height="230" as="geometry" />
        </mxCell>
        <mxCell id="5" value="Navegador Web" style="verticalAlign=top;align=left;spacingTop=8;spacingLeft=2;spacingRight=12;shape=cube;size=10;direction=south;fontStyle=4;html=1;whiteSpace=wrap;" parent="MNFZxwI8h7TTmshtL6sV-89" vertex="1">
          <mxGeometry width="390" height="230" as="geometry" />
        </mxCell>
        <mxCell id="27" value="Interface de Usuario" style="shape=module;align=left;spacingLeft=20;align=center;verticalAlign=top;whiteSpace=wrap;html=1;" parent="MNFZxwI8h7TTmshtL6sV-89" vertex="1">
          <mxGeometry x="60" y="90" width="100" height="50" as="geometry" />
        </mxCell>
        <mxCell id="MNFZxwI8h7TTmshtL6sV-88" value="" style="endArrow=open;endSize=12;dashed=1;html=1;rounded=0;exitX=0.14;exitY=0.7;exitDx=0;exitDy=0;exitPerimeter=0;" edge="1" parent="1" source="8">
          <mxGeometry width="160" relative="1" as="geometry">
            <mxPoint x="428" y="576" as="sourcePoint" />
            <mxPoint x="140" y="630" as="targetPoint" />
          </mxGeometry>
        </mxCell>
        <mxCell id="MNFZxwI8h7TTmshtL6sV-56" value="" style="endArrow=open;endSize=12;dashed=1;html=1;rounded=0;" edge="1" parent="1" source="27">
          <mxGeometry width="160" relative="1" as="geometry">
            <mxPoint x="520" y="445" as="sourcePoint" />
            <mxPoint x="520" y="445" as="targetPoint" />
          </mxGeometry>
        </mxCell>
        <mxCell id="MNFZxwI8h7TTmshtL6sV-57" value="" style="endArrow=open;endSize=12;dashed=1;html=1;rounded=0;exitX=0.127;exitY=0.871;exitDx=0;exitDy=0;exitPerimeter=0;" edge="1" parent="1" source="27">
          <mxGeometry width="160" relative="1" as="geometry">
            <mxPoint x="960" y="290" as="sourcePoint" />
            <mxPoint x="520" y="500" as="targetPoint" />
          </mxGeometry>
        </mxCell>
        <mxCell id="MNFZxwI8h7TTmshtL6sV-58" value="" style="endArrow=open;endSize=12;dashed=1;html=1;rounded=0;exitX=0.208;exitY=0.938;exitDx=0;exitDy=0;exitPerimeter=0;" edge="1" parent="1" source="27">
          <mxGeometry width="160" relative="1" as="geometry">
            <mxPoint x="983" y="294" as="sourcePoint" />
            <mxPoint x="520" y="560" as="targetPoint" />
          </mxGeometry>
        </mxCell>
        <mxCell id="MNFZxwI8h7TTmshtL6sV-59" value="" style="endArrow=open;endSize=12;dashed=1;html=1;rounded=0;exitX=0.193;exitY=0.995;exitDx=0;exitDy=0;exitPerimeter=0;" edge="1" parent="1" source="27">
          <mxGeometry width="160" relative="1" as="geometry">
            <mxPoint x="993" y="304" as="sourcePoint" />
            <mxPoint x="520" y="620" as="targetPoint" />
          </mxGeometry>
        </mxCell>
      </root>
    </mxGraphModel>
  </diagram>
</mxfile>
